<svg id="Layer_2" data-name="Layer 2" xmlns="http://www.w3.org/2000/svg" viewBox="0 0 455 500"><defs><style>.cls-1{fill:#680b1d;}</style></defs><title>Untitled-1</title><path class="cls-1" d="M167.82,158.67h0c.34,0,.66-.07,1-.09,14.1-1.48,29.37-.17,45.88,4.87,7.47,2.27,15.49-1.66,17.88-8.78s-1.73-14.74-9.21-17a152.53,152.53,0,0,0-41.32-6.81V26.77c30.63,2.36,125.36,32,169.16,73.75a154.26,154.26,0,0,1,45.54,85.24H213.35c-7.86,0-14.23,6.07-14.23,13.55s6.37,13.55,14.23,13.55H412.47a14.57,14.57,0,0,0,10-4,13.23,13.23,0,0,0,4.17-9.58c0-2.66-.63-65.81-55.37-117.94C322.7,35.06,188.37-14.23,159.94,3.82a13.39,13.39,0,0,0-6.33,11.27V133.32c-29.63,5.83-57.3,21.84-81.94,47.82C37.9,216.74,17.57,262.21,7.8,284.06c-1.55,3.47-3.27,7.32-4.24,9.23a13.13,13.13,0,0,0-3.56,9c0,7.48,6.37,13.54,14.22,13.54,10.3,0,13.26-6.62,19.75-21.13C49.25,260.5,90.84,167.51,167.82,158.67Z"/><path class="cls-1" d="M258.86,234.53c-76.54,0-114.22,23.64-122.18,76.65-3.18,21.23,4.22,43.54,20.32,61.22a91.87,91.87,0,0,0,67.72,30.1c45,0,65.43-35.11,65.43-67.73,0-19.3-3.31-39.81-27.84-45.66-21.77-5.16-35,.92-42.24,7-18.15,15.11-15.53,42.53-15.17,45.61.86,7.41,7.82,12.63,15.64,11.95s13.43-7.46,12.64-14.88c-.57-5.29.07-17.71,5.64-22.31,3.89-3.2,11.17-2.33,16.59-1,3.24.77,6.29,1.5,6.29,19.37,0,6.78-1.78,40.64-37,40.64a62.83,62.83,0,0,1-46.23-20.76c-10.69-11.74-15.66-26.19-13.64-39.64,3.87-25.83,14.65-53.39,94-53.39h159.3c7.85,0,14.22-6.06,14.22-13.55s-6.37-13.54-14.22-13.54Z"/><path class="cls-1" d="M447.61,328.23l-85.34-43.34a14.84,14.84,0,0,0-14.53.65A13.33,13.33,0,0,0,341.4,298c3.56,39.2,1,72.44-7.5,98.79a90.54,90.54,0,0,1-22,36.54c-16.22,16.47-30,26.84-42.15,31.7-11.33,4.54-26.72,7.24-44.49,7.81-38.28,1.23-81.09-15.81-109-43.42a106,106,0,0,1-31-63.64c0-.39-.11-.77-.19-1.16S75.18,315.81,99.76,283a13.15,13.15,0,0,0-3.31-18.9,14.7,14.7,0,0,0-19.84,3.15C46.32,307.68,55.72,362.48,57,369.3a132.31,132.31,0,0,0,38.74,78.9C127.87,480,176.72,500,221.48,500c1.58,0,3.16,0,4.73-.07,21.51-.7,39.87-4,54.56-9.93,21.16-8.48,39.73-25.82,51.86-38.12a116.88,116.88,0,0,0,28.45-47.1c7.73-23.87,11.13-52.25,10.16-84.63l63,32a14.59,14.59,0,0,0,19.24-5.58A13.23,13.23,0,0,0,447.61,328.23Z"/><path class="cls-1" d="M293,101.78c-18.83,0-34.13,14.58-34.13,32.51S274.16,166.8,293,166.8s34.14-14.58,34.14-32.51S311.83,101.78,293,101.78Zm0,48.77c-9.44,0-17.06-7.27-17.06-16.26S283.55,118,293,118s17.07,7.26,17.07,16.25S302.44,150.55,293,150.55Z"/></svg>